<svg width="121" height="16" viewBox="0 0 121 16" fill="none" xmlns="http://www.w3.org/2000/svg">
<path d="M3.6123 15.4427C3.22586 15.6413 2.78829 15.2942 2.86609 14.8508L3.69582 10.1213L0.173489 6.76462C-0.155692 6.45092 0.0147086 5.87737 0.455698 5.81472L5.35417 5.11885L7.53829 0.792305C7.73504 0.402565 8.26801 0.402565 8.46476 0.792305L10.6489 5.11885L15.5474 5.81472C15.9883 5.87737 16.1587 6.45092 15.8296 6.76462L12.3072 10.1213L13.137 14.8508C13.2148 15.2942 12.7772 15.6413 12.3908 15.4427L8.00153 13.1868L3.6123 15.4427Z" fill="#00AC76"/>
<path d="M29.6123 15.4427C29.2259 15.6413 28.7883 15.2942 28.8661 14.8508L29.6958 10.1213L26.1735 6.76462C25.8443 6.45092 26.0147 5.87737 26.4557 5.81472L31.3542 5.11885L33.5383 0.792305C33.735 0.402565 34.268 0.402565 34.4648 0.792305L36.6489 5.11885L41.5474 5.81472C41.9883 5.87737 42.1587 6.45092 41.8296 6.76462L38.3072 10.1213L39.137 14.8508C39.2148 15.2942 38.7772 15.6413 38.3908 15.4427L34.0015 13.1868L29.6123 15.4427Z" fill="#00AC76"/>
<path d="M55.6123 15.4427C55.2259 15.6413 54.7883 15.2942 54.8661 14.8508L55.6958 10.1213L52.1735 6.76462C51.8443 6.45092 52.0147 5.87737 52.4557 5.81472L57.3542 5.11885L59.5383 0.792305C59.735 0.402565 60.268 0.402565 60.4648 0.792305L62.6489 5.11885L67.5474 5.81472C67.9883 5.87737 68.1587 6.45092 67.8296 6.76462L64.3072 10.1213L65.137 14.8508C65.2148 15.2942 64.7772 15.6413 64.3908 15.4427L60.0015 13.1868L55.6123 15.4427Z" fill="#00AC76"/>
<path d="M83.3542 5.11885L85.5383 0.792305C85.6364 0.597985 85.8181 0.500551 86 0.500002C86.1829 0.499451 86.3661 0.596887 86.4648 0.792307L88.6489 5.11885L93.5474 5.81472C93.8145 5.85267 93.9823 6.0781 94 6.31968C94.002 6.34769 94.0021 6.37593 94 6.40411C93.9904 6.53408 93.9362 6.66299 93.8296 6.76462L90.3072 10.1213L91.137 14.8508C91.2148 15.2942 90.7772 15.6413 90.3908 15.4427L86.0015 13.1868L81.6123 15.4427C81.564 15.4675 81.5149 15.4838 81.4661 15.4925C81.1245 15.5531 80.798 15.2388 80.8661 14.8508L81.6958 10.1213L78.1735 6.76462C78.0552 6.65189 78.0014 6.50559 78.0015 6.36151C78.0016 6.25501 78.0311 6.14972 78.0858 6.06009C78.163 5.93355 78.2903 5.83821 78.4557 5.81472L83.3542 5.11885ZM86 12.0265C86.0795 12.0263 86.1591 12.045 86.2324 12.0826L89.9181 13.977L89.2239 10.0197C89.1911 9.83316 89.2527 9.64214 89.3866 9.5145L92.2934 6.7444L88.2411 6.16874C88.0736 6.14494 87.9273 6.03795 87.8483 5.88141L86.0015 2.22308L86 2.22614V12.0265Z" fill="#00AC76"/>
<path d="M106.866 14.8508C106.788 15.2942 107.226 15.6413 107.612 15.4427L112.002 13.1868L116.391 15.4427C116.777 15.6413 117.215 15.2942 117.137 14.8508L116.307 10.1213L119.83 6.76462C120.159 6.45092 119.988 5.87737 119.547 5.81472L114.649 5.11885L112.465 0.792305C112.268 0.402565 111.735 0.402565 111.538 0.792305L109.354 5.11885L104.456 5.81472C104.015 5.87737 103.844 6.45092 104.173 6.76462L107.696 10.1213L106.866 14.8508ZM111.771 12.0826L108.085 13.977L108.779 10.0197C108.812 9.83316 108.75 9.64214 108.616 9.5145L105.71 6.7444L109.762 6.16873C109.929 6.14494 110.076 6.03795 110.155 5.88141L112.002 2.22308L113.848 5.88141C113.927 6.03795 114.074 6.14494 114.241 6.16873L118.293 6.7444L115.387 9.5145C115.253 9.64214 115.191 9.83316 115.224 10.0197L115.918 13.977L112.232 12.0826C112.087 12.0078 111.916 12.0078 111.771 12.0826Z" fill="#00AC76"/>
</svg>
