<svg width="121" height="16" viewBox="0 0 121 16" fill="none" xmlns="http://www.w3.org/2000/svg">
<path d="M3.6123 15.4427C3.22586 15.6413 2.78829 15.2942 2.86609 14.8508L3.69582 10.1213L0.173489 6.76462C-0.155692 6.45092 0.0147086 5.87737 0.455698 5.81472L5.35417 5.11885L7.53829 0.792305C7.73504 0.402565 8.26801 0.402565 8.46476 0.792305L10.6489 5.11885L15.5474 5.81472C15.9883 5.87737 16.1587 6.45092 15.8296 6.76462L12.3072 10.1213L13.137 14.8508C13.2148 15.2942 12.7772 15.6413 12.3908 15.4427L8.00153 13.1868L3.6123 15.4427Z" fill="#00AC76"/>
<path d="M29.6123 15.4427C29.2259 15.6413 28.7883 15.2942 28.8661 14.8508L29.6958 10.1213L26.1735 6.76462C25.8443 6.45092 26.0147 5.87737 26.4557 5.81472L31.3542 5.11885L33.5383 0.792305C33.735 0.402565 34.268 0.402565 34.4648 0.792305L36.6489 5.11885L41.5474 5.81472C41.9883 5.87737 42.1587 6.45092 41.8296 6.76462L38.3072 10.1213L39.137 14.8508C39.2148 15.2942 38.7772 15.6413 38.3908 15.4427L34.0015 13.1868L29.6123 15.4427Z" fill="#00AC76"/>
<path d="M55.6123 15.4427C55.2259 15.6413 54.7883 15.2942 54.8661 14.8508L55.6958 10.1213L52.1735 6.76462C51.8443 6.45092 52.0147 5.87737 52.4557 5.81472L57.3542 5.11885L59.5383 0.792305C59.735 0.402565 60.268 0.402565 60.4648 0.792305L62.6489 5.11885L67.5474 5.81472C67.9883 5.87737 68.1587 6.45092 67.8296 6.76462L64.3072 10.1213L65.137 14.8508C65.2148 15.2942 64.7772 15.6413 64.3908 15.4427L60.0015 13.1868L55.6123 15.4427Z" fill="#00AC76"/>
<path d="M81.6123 15.4427C81.2259 15.6413 80.7883 15.2942 80.8661 14.8508L81.6958 10.1213L78.1735 6.76462C77.8443 6.45092 78.0147 5.87737 78.4557 5.81472L83.3542 5.11885L85.5383 0.792305C85.735 0.402565 86.268 0.402565 86.4648 0.792305L88.6489 5.11885L93.5474 5.81472C93.9883 5.87737 94.1587 6.45092 93.8296 6.76462L90.3072 10.1213L91.137 14.8508C91.2148 15.2942 90.7772 15.6413 90.3908 15.4427L86.0015 13.1868L81.6123 15.4427Z" fill="#00AC76"/>
<path d="M107.612 15.4427C107.226 15.6413 106.788 15.2942 106.866 14.8508L107.696 10.1213L104.173 6.76462C103.844 6.45092 104.015 5.87737 104.456 5.81472L109.354 5.11885L111.538 0.792305C111.735 0.402565 112.268 0.402565 112.465 0.792305L114.649 5.11885L119.547 5.81472C119.988 5.87737 120.159 6.45092 119.83 6.76462L116.307 10.1213L117.137 14.8508C117.215 15.2942 116.777 15.6413 116.391 15.4427L112.002 13.1868L107.612 15.4427Z" fill="#00AC76"/>
</svg>
