<svg width="50" height="50" viewBox="0 0 50 50" fill="none" xmlns="http://www.w3.org/2000/svg">
<g clip-path="url(#clip0_67_1628)">
<path d="M12.207 44.043C8.54492 44.043 5.56641 41.0645 5.56641 37.4023C5.56641 33.7402 8.54492 30.7617 12.207 30.7617C15.8691 30.7617 18.8477 33.7402 18.8477 37.4023C18.8477 41.0645 15.8691 44.043 12.207 44.043ZM12.207 31.7383C9.08203 31.7383 6.54297 34.2773 6.54297 37.4023C6.54297 40.5273 9.08203 43.0664 12.207 43.0664C15.332 43.0664 17.8711 40.5273 17.8711 37.4023C17.8711 34.2773 15.332 31.7383 12.207 31.7383Z" fill="white"/>
<path d="M12.207 41.0156C10.2148 41.0156 8.59375 39.3945 8.59375 37.4023C8.59375 35.4102 10.2148 33.7891 12.207 33.7891C14.1992 33.7891 15.8203 35.4102 15.8203 37.4023C15.8203 39.3945 14.1992 41.0156 12.207 41.0156ZM12.207 34.7656C10.752 34.7656 9.57031 35.9473 9.57031 37.4023C9.57031 38.8574 10.752 40.0391 12.207 40.0391C13.6621 40.0391 14.8438 38.8574 14.8438 37.4023C14.8438 35.9473 13.6621 34.7656 12.207 34.7656Z" fill="white"/>
<path d="M6.05469 40.4297H0.488281C0.214844 40.4297 0 40.2148 0 39.9414V34.8633C0 34.5898 0.214844 34.375 0.488281 34.375H6.05469C6.32812 34.375 6.54297 34.5898 6.54297 34.8633V39.9414C6.54297 40.2148 6.32812 40.4297 6.05469 40.4297ZM0.976562 39.4531H5.56641V35.3516H0.976562V39.4531Z" fill="white"/>
<path d="M2.73438 34.8633H1.75781V30.0781C1.75781 29.9609 1.79688 29.8535 1.875 29.7656C4.82422 26.2402 9.14062 24.2188 13.7402 24.2188H18.6133L21.1914 21.0156C23.1738 18.5547 25.7324 16.5332 28.5937 15.166C31.4453 13.7988 34.6289 13.0762 37.793 13.0762V14.0527C31.6113 14.0527 25.8398 16.8164 21.9531 21.6211L19.2285 25C19.1406 25.1172 18.9941 25.1855 18.8477 25.1855H13.7402C9.49219 25.1855 5.48828 27.0313 2.73438 30.2441V34.8633Z" fill="white"/>
<path d="M26.6602 25.1953H22.0703C21.7969 25.1953 21.582 24.9805 21.582 24.707V23.4375C21.582 22.4707 22.373 21.6797 23.3398 21.6797H26.6602C27.627 21.6797 28.418 22.4707 28.418 23.4375C28.418 24.4043 27.627 25.1953 26.6602 25.1953ZM22.5586 24.2188H26.6602C27.0898 24.2188 27.4414 23.8672 27.4414 23.4375C27.4414 23.0078 27.0898 22.6562 26.6602 22.6562H23.3398C22.9102 22.6562 22.5586 23.0078 22.5586 23.4375V24.2188Z" fill="white"/>
<path d="M5.76172 30.5664H2.2461C2.06055 30.5664 1.88477 30.459 1.80664 30.2832C1.72852 30.1074 1.74805 29.9121 1.875 29.7656C3.21289 28.1641 5.17578 27.2461 7.26563 27.2461H8.10547C8.37891 27.2461 8.59375 27.4609 8.59375 27.7344C8.59375 29.2969 7.32422 30.5664 5.76172 30.5664ZM3.42774 29.5898H5.76172C6.61133 29.5898 7.33399 29.0137 7.54883 28.2227H7.25586C5.84961 28.2227 4.50196 28.7109 3.42774 29.5898Z" fill="white"/>
<path d="M46.0937 44.043C46.0059 44.043 45.918 44.0234 45.8398 43.9746C45.6934 43.8867 45.6055 43.7305 45.6055 43.5547V39.6191L43.6523 38.623L41.6992 39.6191V43.5547C41.6992 43.7207 41.6113 43.8867 41.4648 43.9746C41.3184 44.0625 41.1426 44.0723 40.9863 43.9941L38.418 42.6758L38.8672 41.8066L40.7324 42.7637V39.3262C40.7324 39.1406 40.8398 38.9746 40.9961 38.8867L43.4375 37.6367C43.5742 37.5684 43.7402 37.5684 43.8867 37.6367L46.3281 38.8867C46.4941 38.9746 46.5918 39.1406 46.5918 39.3262V42.7637L49.0332 41.5137V36.1133L45.8789 34.5019C45.7129 34.4141 45.6152 34.248 45.6152 34.0625V15.9375C45.6152 15.7519 45.7227 15.5859 45.8789 15.498L49.0332 13.8867V8.49609L46.5918 7.24609V10.6836C46.5918 10.8691 46.4844 11.0352 46.3281 11.123L43.8867 12.373C43.75 12.4414 43.584 12.4414 43.4375 12.373L40.9961 11.123C40.8301 11.0352 40.7324 10.8691 40.7324 10.6836V7.24609L38.2812 8.49609V13.8965L41.4355 15.5078C41.6016 15.5957 41.6992 15.7617 41.6992 15.9473V34.0723C41.6992 34.2578 41.5918 34.4238 41.4355 34.5117L38.2812 36.1133V37.3047C38.2812 37.5781 38.0664 37.793 37.793 37.793H37.6953C37.5684 38.2227 37.3926 38.6328 37.1875 39.0234L38.0859 39.9219C38.1738 40.0098 38.2324 40.1367 38.2324 40.2637C38.2324 40.3906 38.1836 40.5176 38.0859 40.6055L36.0156 42.6758C35.8203 42.8711 35.5176 42.8711 35.3223 42.6758L34.4238 41.7773C34.0332 41.9824 33.623 42.1582 33.1934 42.2852V43.5547C33.1934 43.8281 32.9785 44.043 32.7051 44.043H29.7754C29.502 44.043 29.2871 43.8281 29.2871 43.5547V42.2852C28.8574 42.1582 28.4473 41.9824 28.0566 41.7773L27.1582 42.6758C26.9629 42.8711 26.6602 42.8711 26.4648 42.6758L24.4141 40.6055C24.2187 40.4102 24.2187 40.1074 24.4141 39.9121L25.3125 39.0137C25.1074 38.623 24.9316 38.2129 24.8047 37.7832H23.5352C23.2617 37.7832 23.0469 37.5684 23.0469 37.2949V34.3652C23.0469 34.0918 23.2617 33.8769 23.5352 33.8769H24.8047C24.9316 33.4473 25.1074 33.0371 25.3125 32.6465L24.4141 31.748C24.2187 31.5527 24.2187 31.25 24.4141 31.0547L26.4844 28.9844C26.6797 28.7891 26.9824 28.7891 27.1777 28.9844L28.0762 29.8828C28.4668 29.6777 28.877 29.5019 29.3066 29.375V28.1055C29.3066 27.832 29.5215 27.6172 29.7949 27.6172H32.7246C32.998 27.6172 33.2129 27.832 33.2129 28.1055V29.375C33.6426 29.5019 34.0527 29.6777 34.4434 29.8828L35.3418 28.9844C35.5371 28.7891 35.8398 28.7891 36.0352 28.9844L38.1055 31.0547C38.1934 31.1426 38.252 31.2695 38.252 31.3965C38.252 31.5234 38.2031 31.6504 38.1055 31.7383L37.207 32.6367C37.4121 33.0273 37.5879 33.4375 37.7148 33.8672H38.9844C39.2578 33.8672 39.4727 34.082 39.4727 34.3555V34.3945L40.7422 33.7402V16.2402L37.5879 14.6289C37.4219 14.541 37.3242 14.375 37.3242 14.1895V8.19336C37.3242 8.00781 37.4316 7.84179 37.5879 7.7539L41.0059 6.00585C41.1523 5.92773 41.3379 5.9375 41.4844 6.02539C41.6309 6.11328 41.7188 6.26953 41.7188 6.44531V10.3809L43.6719 11.3769L45.625 10.3809V6.44531C45.625 6.27929 45.7129 6.11328 45.8594 6.02539C46.0059 5.9375 46.1816 5.92773 46.3379 6.00585L49.7559 7.7539C49.9219 7.84179 50.0195 8.00781 50.0195 8.19336V14.1895C50.0195 14.375 49.9121 14.541 49.7559 14.6289L46.582 16.2402V33.7695L49.7363 35.3809C49.9023 35.4687 50 35.6348 50 35.8203V41.8164C50 42.002 49.8926 42.168 49.7363 42.2559L46.3184 44.0039C46.25 44.0234 46.1719 44.043 46.0937 44.043ZM30.2734 43.0664H32.2266V41.9141C32.2266 41.6895 32.3828 41.4941 32.5977 41.4355C33.1836 41.2988 33.7402 41.0644 34.248 40.7519C34.4434 40.6348 34.6875 40.6641 34.8437 40.8203L35.6543 41.6309L37.0312 40.2539L36.2207 39.4434C36.0645 39.2871 36.0352 39.0332 36.1523 38.8477C36.4648 38.3398 36.6992 37.7832 36.8359 37.1973C36.8848 36.9824 37.0703 36.8359 37.2852 36.8262V35.8203C37.2852 35.6348 37.3926 35.4687 37.5488 35.3809L38.457 34.9219V34.8633H37.3047C37.0801 34.8633 36.8848 34.707 36.8262 34.4922C36.6895 33.9062 36.4551 33.3496 36.1426 32.8418C36.0254 32.6465 36.0547 32.4023 36.2109 32.2461L37.0215 31.4355L35.6445 30.0586L34.834 30.8691C34.6777 31.0254 34.4238 31.0547 34.2383 30.9375C33.7305 30.625 33.1738 30.3906 32.5879 30.2539C32.373 30.2051 32.2168 30.0098 32.2168 29.7754V28.6133H30.2637V29.7656C30.2637 29.9902 30.1074 30.1855 29.8926 30.2441C29.3066 30.3809 28.75 30.6152 28.2422 30.9277C28.0469 31.0449 27.8027 31.0156 27.6465 30.8594L26.8359 30.0488L25.459 31.4258L26.2695 32.2363C26.4258 32.3926 26.4551 32.6465 26.3379 32.832C26.0254 33.3398 25.791 33.8965 25.6543 34.4824C25.6055 34.6973 25.4004 34.8535 25.1758 34.8535H24.0234V36.8066H25.1758C25.4004 36.8066 25.5957 36.9629 25.6543 37.1777C25.791 37.7637 26.0254 38.3203 26.3379 38.8281C26.4551 39.0234 26.4258 39.2676 26.2695 39.4238L25.459 40.2344L26.8359 41.6113L27.6465 40.8008C27.8027 40.6445 28.0566 40.6152 28.2422 40.7324C28.75 41.0449 29.3066 41.2793 29.8926 41.416C30.1074 41.4648 30.2637 41.6602 30.2637 41.8945V43.0664H30.2734ZM31.25 39.7461C29.0918 39.7461 27.3437 37.998 27.3437 35.8398C27.3437 33.6816 29.0918 31.9336 31.25 31.9336C33.4082 31.9336 35.1562 33.6816 35.1562 35.8398C35.1562 37.998 33.4082 39.7461 31.25 39.7461ZM31.25 32.9102C29.6387 32.9102 28.3203 34.2285 28.3203 35.8398C28.3203 37.4512 29.6387 38.7695 31.25 38.7695C32.8613 38.7695 34.1797 37.4512 34.1797 35.8398C34.1797 34.2285 32.8613 32.9102 31.25 32.9102Z" fill="white"/>
<path d="M24.541 22.4805L23.7891 21.8555L24.375 21.1523C27.3242 17.5781 31.6699 15.5273 36.3086 15.5273H41.2109V16.5039H36.3086C31.9629 16.5039 27.8906 18.4277 25.127 21.7773L24.541 22.4805Z" fill="white"/>
<path d="M22.0703 24.2188H39.2578V25.1953H22.0703V24.2188Z" fill="white"/>
<path d="M25.0781 40.4297H18.3594C18.0859 40.4297 17.8711 40.2148 17.8711 39.9414V34.8633C17.8711 34.5898 18.0859 34.375 18.3594 34.375H23.5352V35.3516H18.8477V39.4531H25.0781V40.4297Z" fill="white"/>
<path d="M27.9785 34.375H34.5313V35.3516H27.9785V34.375Z" fill="white"/>
</g>
<defs>
<clipPath id="clip0_67_1628">
<rect width="50" height="50" fill="white"/>
</clipPath>
</defs>
</svg>
