<svg width="30" height="30" viewBox="0 0 30 30" fill="none" xmlns="http://www.w3.org/2000/svg">
<path d="M28.8576 8.30912L16.6841 3.09179C15.6138 2.63314 14.3856 2.6335 13.314 3.09269L1.14316 8.30882C0.43806 8.61094 0 9.27515 0 10.0422C0 10.8088 0.437761 11.4727 1.14244 11.7747L2.58113 12.3913C2.57963 12.4062 2.57886 12.4213 2.57886 12.4365V19.2446C2.02275 19.4325 1.62109 19.9588 1.62109 20.5775C1.62109 20.9362 1.75625 21.2638 1.97803 21.5126C1.73273 21.753 1.56985 22.079 1.5362 22.4484L1.19153 26.2401C1.168 26.4992 1.2551 26.7578 1.43043 26.9498C1.60576 27.1418 1.8555 27.252 2.11554 27.252H3.94003C4.20006 27.252 4.4498 27.1418 4.62513 26.9498C4.80052 26.7578 4.88756 26.4991 4.86404 26.2401L4.51936 22.4484C4.48578 22.0791 4.32284 21.7531 4.07753 21.5126C4.29931 21.2639 4.43448 20.9362 4.43448 20.5775C4.43448 19.9588 4.03281 19.4325 3.47671 19.2446V12.7751L5.93327 13.828C5.93177 13.8428 5.93099 13.8578 5.93099 13.8731V17.3009C5.93099 18.7315 6.91055 20.0549 8.68931 21.0275C10.3823 21.9532 12.6235 22.4631 14.9999 22.4631C17.3763 22.4631 19.6175 21.9532 21.3104 21.0275C23.0891 20.0549 24.0688 18.7315 24.0688 17.3009V13.8731C24.0688 13.8578 24.068 13.8428 24.0665 13.828L28.8568 11.7751C29.5619 11.4729 29.9999 10.8086 29.9999 10.0416C30 9.27498 29.5622 8.61112 28.8576 8.30912ZM3.96212 26.3443C3.95326 26.3541 3.94362 26.3541 3.94003 26.3541H2.11554C2.11188 26.3541 2.10231 26.3541 2.09345 26.3443C2.08453 26.3345 2.08542 26.325 2.08572 26.3214L2.4304 22.5297C2.45872 22.2188 2.71552 21.9842 3.02781 21.9842C3.34004 21.9842 3.59685 22.2188 3.62516 22.5297L3.96984 26.3214C3.9702 26.325 3.97104 26.3345 3.96212 26.3443ZM3.02781 21.0863C2.74724 21.0863 2.519 20.8581 2.519 20.5775C2.519 20.2969 2.74724 20.0687 3.02781 20.0687C3.30838 20.0687 3.53663 20.2969 3.53663 20.5775C3.53663 20.8581 3.30838 21.0863 3.02781 21.0863ZM23.1709 15.3854C23.1709 16.5463 22.2154 17.6798 20.5494 18.4951C20.3267 18.6041 20.2346 18.873 20.3436 19.0957C20.4215 19.2549 20.5811 19.3474 20.7472 19.3474C20.8134 19.3474 20.8806 19.3327 20.9442 19.3016C21.8683 18.8493 22.6086 18.2984 23.1365 17.6858C22.9682 18.6325 22.182 19.5277 20.8798 20.2398C19.3166 21.0945 17.2285 21.5652 15 21.5652C12.7715 21.5652 10.6834 21.0945 9.12019 20.2398C7.82271 19.5303 7.03734 18.639 6.86518 17.696C7.31898 18.2191 7.9313 18.6975 8.68937 19.1121C10.3823 20.0377 12.6235 20.5476 14.9999 20.5476C15.6648 20.5476 16.3278 20.5071 16.9707 20.4274C17.2168 20.3968 17.3916 20.1727 17.361 19.9266C17.3305 19.6805 17.1066 19.5057 16.8602 19.5363C16.2538 19.6115 15.6279 19.6497 14.9999 19.6497C12.7714 19.6497 10.6833 19.179 9.12013 18.3242C7.64265 17.5163 6.82896 16.4727 6.82896 15.3854V14.2119L13.3159 16.9921C13.8507 17.2213 14.4249 17.3359 14.9994 17.3359C15.5745 17.3359 16.1499 17.221 16.686 16.9913L23.1709 14.212V15.3854ZM28.5031 10.9498L16.3322 16.1658C15.4855 16.5287 14.5151 16.529 13.6697 16.1667L4.36791 12.1802L12.8908 10.6979C13.2742 11.1516 14.0554 11.4487 14.9999 11.4487C16.3479 11.4487 17.3644 10.8439 17.3644 10.042C17.3644 9.24002 16.3479 8.63524 14.9999 8.63524C13.7757 8.63524 12.825 9.13412 12.6608 9.82647L2.95089 11.5151C2.9224 11.5201 2.89516 11.5278 2.86906 11.5377L1.49622 10.9493C1.12155 10.7889 0.89791 10.4497 0.89791 10.0422C0.89791 9.63432 1.12185 9.29479 1.49688 9.13406L13.6677 3.91793C14.0915 3.73637 14.5461 3.64556 15.0007 3.64556C15.4544 3.64556 15.908 3.73607 16.3303 3.91703L28.5038 9.13436C28.8785 9.29491 29.1021 9.63408 29.1021 10.0416C29.1021 10.4496 28.8782 10.789 28.5031 10.9498ZM13.5334 10.042C13.5334 9.91123 14.0376 9.53321 14.9999 9.53321C15.9623 9.53321 16.4665 9.91123 16.4665 10.042C16.4665 10.1728 15.9623 10.5508 14.9999 10.5508C14.0376 10.5508 13.5334 10.1728 13.5334 10.042Z" fill="#00AC76"/>
<path d="M18.3517 20.178C18.3852 20.178 18.4192 20.1742 18.4532 20.1664C18.792 20.0881 19.1258 19.9972 19.4453 19.8961C19.6817 19.8213 19.8127 19.5691 19.7379 19.3327C19.6632 19.0963 19.411 18.9651 19.1745 19.04C18.8775 19.1339 18.5669 19.2185 18.2511 19.2914C18.0095 19.3472 17.8589 19.5883 17.9147 19.8299C17.9627 20.0375 18.1474 20.178 18.3517 20.178Z" fill="#00AC76"/>
</svg>
