<svg width="24" height="25" viewBox="0 0 24 25" fill="none" xmlns="http://www.w3.org/2000/svg">
<g clip-path="url(#clip0_174_2053)">
<path d="M24 12.3125C24 5.68508 18.6274 0.3125 12 0.3125C5.37258 0.3125 0 5.68508 0 12.3125C0 18.302 4.3882 23.2665 10.125 24.1667V15.7812H7.07812V12.3125H10.125V9.66875C10.125 6.66125 11.9166 5 14.6576 5C15.9701 5 17.3438 5.23438 17.3438 5.23438V8.1875H15.8306C14.34 8.1875 13.875 9.11258 13.875 10.0625V12.3125H17.2031L16.6711 15.7812H13.875V24.1667C19.6118 23.2665 24 18.302 24 12.3125Z" fill="#1877F2"/>
</g>
<defs>
<clipPath id="clip0_174_2053">
<rect width="24" height="24" fill="white" transform="translate(0 0.3125)"/>
</clipPath>
</defs>
</svg>
