<svg width="50" height="50" viewBox="0 0 50 50" fill="none" xmlns="http://www.w3.org/2000/svg">
<g clip-path="url(#clip0_67_1561)">
<path d="M25 26.6888C25.9326 26.6888 26.6886 25.9328 26.6886 25.0002C26.6886 24.0676 25.9326 23.3115 25 23.3115C24.0674 23.3115 23.3113 24.0676 23.3113 25.0002C23.3113 25.9328 24.0674 26.6888 25 26.6888Z" fill="white"/>
<path d="M36.8956 31.8219C40.6573 31.8219 43.7175 28.7616 43.7175 25.0002C43.7175 21.2382 40.6573 18.178 36.8956 18.178C33.1339 18.178 30.0734 21.2382 30.0734 25.0002C30.0734 28.7616 33.1339 31.8219 36.8956 31.8219ZM36.8956 20.1794C39.5536 20.1794 41.7161 22.3418 41.7161 25.0002C41.7161 27.6578 39.5536 29.8204 36.8956 29.8204C34.2372 29.8204 32.0748 27.658 32.0748 25.0002C32.0748 22.3418 34.2374 20.1794 36.8956 20.1794Z" fill="white"/>
<path d="M25.0001 19.9268C28.7618 19.9268 31.8221 16.8666 31.8221 13.1046C31.8221 9.3432 28.7618 6.28296 25.0001 6.28296C21.2384 6.28296 18.1779 9.3432 18.1779 13.1046C18.1778 16.8666 21.2384 19.9268 25.0001 19.9268ZM25.0001 8.2844C27.6582 8.2844 29.8206 10.4468 29.8206 13.1046C29.8206 15.763 27.6582 17.9254 25.0001 17.9254C22.3418 17.9254 20.1794 15.763 20.1794 13.1046C20.1794 10.4468 22.3418 8.2844 25.0001 8.2844Z" fill="white"/>
<path d="M13.1042 18.178C9.34253 18.178 6.28229 21.2382 6.28229 25.0002C6.28229 28.7616 9.34253 31.8219 13.1042 31.8219C16.8659 31.8219 19.9264 28.7616 19.9264 25.0002C19.9266 21.2382 16.8659 18.178 13.1042 18.178ZM13.1042 29.8204C10.4462 29.8204 8.28373 27.658 8.28373 25.0002C8.28373 22.3418 10.4462 20.1794 13.1042 20.1794C15.7626 20.1794 17.925 22.3418 17.925 25.0002C17.925 27.6578 15.7626 29.8204 13.1042 29.8204Z" fill="white"/>
<path d="M31.8221 36.8954C31.8221 33.134 28.7618 30.0737 25.0001 30.0737C21.2384 30.0737 18.1779 33.134 18.1779 36.8954C18.1779 40.6574 21.2384 43.7177 25.0001 43.7177C28.7618 43.7177 31.8221 40.6575 31.8221 36.8954ZM20.1794 36.8954C20.1794 34.2377 22.3418 32.0752 25.0001 32.0752C27.6582 32.0752 29.8206 34.2376 29.8206 36.8954C29.8206 39.5537 27.6582 41.7162 25.0001 41.7162C22.3418 41.7162 20.1794 39.5537 20.1794 36.8954Z" fill="white"/>
<path d="M48.999 47.9984H34.7966C43.7261 44.1802 49.9998 35.3099 49.9998 25.0003C49.9997 11.215 38.7851 0 25.0001 0C11.2151 0 0.00012207 11.215 0.00012207 25.0003C0.00012207 38.785 11.2151 50 25.0001 50H48.999C49.5518 50 49.9997 49.5517 49.9997 48.9993C49.9997 48.4465 49.5517 47.9984 48.999 47.9984ZM2.00171 25.0003C2.00171 12.3186 12.3189 2.00144 25.0001 2.00144C37.6813 2.00144 47.9983 12.3186 47.9983 25.0003C47.9983 37.6812 37.6815 47.9984 25.0001 47.9984C12.3188 47.9984 2.00171 37.6814 2.00171 25.0003Z" fill="white"/>
</g>
<defs>
<clipPath id="clip0_67_1561">
<rect width="50" height="50" fill="white"/>
</clipPath>
</defs>
</svg>
