<svg width="50" height="50" viewBox="0 0 50 50" fill="none" xmlns="http://www.w3.org/2000/svg">
<g clip-path="url(#clip0_67_1655)">
<path d="M44.0612 13.1296C43.7354 12.7817 43.3931 12.4409 43.044 12.1168C40.7625 9.99746 37.7582 9.34229 34.8011 10.319C31.7302 11.3334 28.5339 11.9257 25.301 12.0793C25.0875 12.0894 24.9131 12.0896 24.6991 12.0793C21.4663 11.9256 18.27 11.3333 15.1991 10.319C12.2425 9.34229 9.2377 9.99746 6.95596 12.1169C6.60713 12.441 6.26533 12.7814 5.93994 13.1286C5.61436 13.4762 5.35176 13.8075 5.08818 14.2032C1.54873 19.5212 -0.204297 25.7077 0.0183597 32.0941C0.133985 35.4049 2.02461 38.1517 5.07568 39.4418C6.16006 39.9002 7.27412 40.1253 8.37002 40.1253C10.3583 40.1253 12.287 39.3843 13.8698 37.9509C14.3445 37.5211 14.8021 37.0619 15.2299 36.5866C15.707 36.0564 16.1749 35.6791 16.7941 35.3249C19.2867 33.8993 22.1242 33.1459 24.9999 33.1459C27.876 33.1459 30.7137 33.8995 33.2061 35.3252C33.825 35.6792 34.2927 36.0564 34.77 36.5868C35.1982 37.0625 35.6557 37.5214 36.1299 37.9508C38.5855 40.1743 41.873 40.7318 44.9242 39.4418C47.9755 38.1517 49.866 35.4048 49.9815 32.0941C50.2042 25.7081 48.4514 19.522 44.9124 14.2042C44.6489 13.8083 44.3864 13.4769 44.0612 13.1296ZM25.3938 14.0303C27.6601 13.9225 29.909 13.6092 32.1138 13.0979V16.1558C32.1138 16.547 31.7955 16.8652 31.4043 16.8652H18.5957C18.2045 16.8652 17.8862 16.547 17.8862 16.1558V13.0979C20.091 13.6093 22.34 13.9226 24.6063 14.0304C24.8829 14.0435 25.1186 14.0434 25.3938 14.0303ZM48.0296 32.026C47.9413 34.5568 46.4961 36.6565 44.1636 37.6428C41.8313 38.6291 39.3182 38.203 37.4409 36.5031C37.0158 36.1183 36.6057 35.7067 36.2218 35.2803C35.6058 34.5958 34.9748 34.0868 34.1759 33.6299C31.3887 32.0355 28.2157 31.1929 25 31.1929C21.7847 31.1929 18.6119 32.0354 15.8244 33.6297C15.0252 34.0869 14.3941 34.5959 13.7782 35.2802C13.3947 35.7063 12.9846 36.1178 12.559 36.5031C10.6822 38.2028 8.16924 38.6292 5.83643 37.6428C3.504 36.6565 2.05869 34.5568 1.97041 32.026C1.76191 26.0502 3.40225 20.2613 6.71397 15.2855C6.91797 14.979 7.1127 14.7334 7.36514 14.464C7.65977 14.1495 7.96934 13.8413 8.28516 13.5479C9.49922 12.4202 10.9806 11.8349 12.5313 11.8349C13.2086 11.8349 13.8993 11.9467 14.5863 12.1735C15.0327 12.321 15.4819 12.4592 15.9331 12.5896V16.1557C15.9331 17.6238 17.1274 18.8183 18.5957 18.8183H31.4043C32.8725 18.8183 34.0669 17.6239 34.0669 16.1557V12.5896C34.5181 12.4592 34.9673 12.321 35.4137 12.1735C37.6741 11.427 39.9706 11.9277 41.7148 13.5479C42.0309 13.8414 42.3407 14.1499 42.6357 14.4648C42.8877 14.7339 43.0823 14.9796 43.2865 15.2862C46.5979 20.262 48.2381 26.0506 48.0296 32.026ZM16.1587 20.69H15.2246V19.7561C15.2246 18.1687 13.9331 16.8772 12.3457 16.8772C10.7583 16.8772 9.4669 18.1687 9.4669 19.7561V20.69H8.53281C6.94541 20.69 5.654 21.9815 5.654 23.5689C5.654 25.1563 6.94551 26.4478 8.53281 26.4478H9.4669V27.3817C9.4669 28.9691 10.7584 30.2605 12.3458 30.2605C13.9332 30.2605 15.2246 28.969 15.2246 27.3817V26.4478H16.1586C17.746 26.4478 19.0374 25.1562 19.0374 23.5688C19.0375 21.9815 17.7461 20.69 16.1587 20.69ZM16.1587 24.4947H14.248C13.7088 24.4947 13.2715 24.932 13.2715 25.4713V27.3818C13.2715 27.8923 12.8562 28.3075 12.3457 28.3075C11.8353 28.3075 11.42 27.8922 11.42 27.3818V25.4713C11.42 24.932 10.9827 24.4947 10.4435 24.4947H8.53272C8.02227 24.4947 7.60703 24.0794 7.60703 23.5689C7.60703 23.0585 8.02236 22.6433 8.53272 22.6433H10.4434C10.9826 22.6433 11.4199 22.206 11.4199 21.6667V19.7562C11.4199 19.2457 11.8353 18.8305 12.3456 18.8305C12.8561 18.8305 13.2714 19.2458 13.2714 19.7562V21.6667C13.2714 22.206 13.7087 22.6433 14.248 22.6433H16.1585C16.6689 22.6433 17.0842 23.0586 17.0842 23.569C17.0844 24.0794 16.669 24.4947 16.1587 24.4947ZM37.6736 21.5894C39.162 21.5894 40.373 20.3784 40.373 18.8899C40.373 17.4015 39.1621 16.1906 37.6736 16.1906C36.1852 16.1906 34.9743 17.4015 34.9743 18.8899C34.9743 20.3784 36.1853 21.5894 37.6736 21.5894ZM37.6736 18.1438C38.0852 18.1438 38.4199 18.4786 38.4199 18.89C38.4199 19.3016 38.0852 19.6363 37.6736 19.6363C37.2622 19.6363 36.9274 19.3016 36.9274 18.89C36.9275 18.4786 37.2622 18.1438 37.6736 18.1438ZM37.6736 25.5485C36.1853 25.5485 34.9743 26.7594 34.9743 28.2478C34.9743 29.7363 36.1852 30.9472 37.6736 30.9472C39.1621 30.9472 40.373 29.7363 40.373 28.2478C40.373 26.7594 39.1621 25.5485 37.6736 25.5485ZM37.6736 28.9939C37.2622 28.9939 36.9274 28.6592 36.9274 28.2478C36.9274 27.8363 37.2622 27.5016 37.6736 27.5016C38.0852 27.5016 38.4199 27.8363 38.4199 28.2478C38.4199 28.6592 38.0852 28.9939 37.6736 28.9939ZM32.9948 20.8696C31.5064 20.8696 30.2954 22.0805 30.2954 23.5689C30.2954 25.0574 31.5063 26.2684 32.9948 26.2684C34.4833 26.2684 35.6941 25.0574 35.6941 23.5689C35.6941 22.0805 34.4832 20.8696 32.9948 20.8696ZM32.9948 24.3151C32.5833 24.3151 32.2485 23.9804 32.2485 23.5688C32.2485 23.1574 32.5833 22.8227 32.9948 22.8227C33.4063 22.8227 33.741 23.1574 33.741 23.5688C33.741 23.9805 33.4063 24.3151 32.9948 24.3151ZM39.6533 23.5689C39.6533 25.0573 40.8642 26.2684 42.3526 26.2684C43.8411 26.2684 45.052 25.0574 45.052 23.5689C45.052 22.0805 43.8411 20.8696 42.3526 20.8696C40.8642 20.8696 39.6533 22.0806 39.6533 23.5689ZM43.0987 23.5689C43.0987 23.9805 42.764 24.3152 42.3525 24.3152C41.9411 24.3152 41.6063 23.9805 41.6063 23.5689C41.6063 23.1575 41.9411 22.8228 42.3525 22.8228C42.764 22.8228 43.0987 23.1575 43.0987 23.5689Z" fill="white"/>
</g>
<defs>
<clipPath id="clip0_67_1655">
<rect width="50" height="50" fill="white"/>
</clipPath>
</defs>
</svg>
