<svg width="25" height="25" viewBox="0 0 25 25" fill="none" xmlns="http://www.w3.org/2000/svg">
<g clip-path="url(#clip0_174_2046)">
<path d="M24.2663 12.5889C24.2663 11.7732 24.2001 10.9531 24.059 10.1506H12.7402V14.7716H19.222C18.953 16.2619 18.0888 17.5803 16.8233 18.4181V21.4164H20.6903C22.9611 19.3264 24.2663 16.2399 24.2663 12.5889Z" fill="#4285F4"/>
<path d="M12.7401 24.3133C15.9766 24.3133 18.7059 23.2507 20.6945 21.4164L16.8276 18.418C15.7517 19.15 14.3627 19.5645 12.7445 19.5645C9.61388 19.5645 6.95946 17.4524 6.00705 14.6128H2.0166V17.7037C4.05371 21.7559 8.2029 24.3133 12.7401 24.3133Z" fill="#34A853"/>
<path d="M6.00277 14.6128C5.50011 13.1224 5.50011 11.5086 6.00277 10.0182V6.92731H2.01674C0.314734 10.3181 0.314734 14.3129 2.01674 17.7037L6.00277 14.6128Z" fill="#FBBC04"/>
<path d="M12.7401 5.06216C14.4509 5.0357 16.1044 5.67947 17.3434 6.86117L20.7695 3.43512C18.6001 1.398 15.7208 0.278034 12.7401 0.313309C8.2029 0.313309 4.05371 2.87072 2.0166 6.92731L6.00264 10.0183C6.95064 7.17423 9.60947 5.06216 12.7401 5.06216Z" fill="#EA4335"/>
</g>
<defs>
<clipPath id="clip0_174_2046">
<rect width="24" height="24" fill="white" transform="translate(0.5 0.3125)"/>
</clipPath>
</defs>
</svg>
