<svg width="30" height="30" viewBox="0 0 30 30" fill="none" xmlns="http://www.w3.org/2000/svg">
<g clip-path="url(#clip0_54_1653)">
<path d="M28.6742 22.2682C28.9166 22.2682 29.1131 22.0717 29.1131 21.8293V11.784C29.1131 11.5416 28.9166 11.3451 28.6742 11.3451H26.7485V9.28048C26.7485 8.92403 26.4584 8.634 26.102 8.634H18.5102L18.9929 7.99102C20.2031 6.37923 20.3368 4.28616 19.3419 2.52853C19.2226 2.31762 18.9548 2.24335 18.7438 2.36274C18.5328 2.48212 18.4586 2.74997 18.578 2.96088C19.3983 4.41011 19.2883 6.13561 18.291 7.46398L16.6886 9.59807C16.6316 9.67404 16.6007 9.76656 16.6007 9.8616V11.3452H15.4389V5.09732H16.0973C16.3828 5.09732 16.615 5.32953 16.615 5.61494C16.615 5.85734 16.8115 6.05385 17.0539 6.05385C17.2963 6.05385 17.4928 5.85734 17.4928 5.61494C17.4928 4.8455 16.8668 4.2195 16.0973 4.2195H15H13.9027C13.1332 4.2195 12.5072 4.8455 12.5072 5.61494C12.5072 5.85734 12.7038 6.05385 12.9462 6.05385C13.1885 6.05385 13.3851 5.85734 13.3851 5.61494C13.3851 5.32953 13.6173 5.09732 13.9027 5.09732H14.5611V11.3452H13.3993V9.8616C13.3993 9.76656 13.3684 9.67404 13.3114 9.59807L11.7091 7.46398C10.7526 6.19003 10.6066 4.57871 11.3187 3.15365C12.0308 1.7286 13.4069 0.877819 15 0.877819C15.9076 0.877819 16.759 1.15702 17.4621 1.68524C17.6559 1.83096 17.9311 1.7918 18.0766 1.59798C18.2222 1.40416 18.1832 1.12905 17.9893 0.98345C17.133 0.340067 16.0993 0 15 0C13.096 0 11.3845 1.05806 10.5335 2.76127C9.68242 4.46447 9.86395 6.46842 11.0071 7.99102L11.4898 8.634H3.89812C3.54166 8.634 3.25163 8.92403 3.25163 9.28048V11.3451H1.32587C1.08348 11.3451 0.886963 11.5416 0.886963 11.784V27.7469C0.886963 28.9893 1.89768 30 3.14003 30H26.86C28.1023 30 29.1131 28.9893 29.1131 27.7469V23.6998C29.1131 23.4574 28.9166 23.2609 28.6742 23.2609C28.4318 23.2609 28.2352 23.4574 28.2352 23.6998V27.7469C28.2352 28.5052 27.6183 29.1222 26.86 29.1222H3.14003C2.38171 29.1222 1.76478 28.5052 1.76478 27.7469V12.2229H3.25163V27.1882C3.25163 27.5447 3.54166 27.8347 3.89812 27.8347H26.102C26.4584 27.8347 26.7485 27.5447 26.7485 27.1882V12.2229H28.2353V21.8293C28.2353 22.0717 28.4318 22.2682 28.6742 22.2682ZM25.8706 9.51182V24.6235H16.8767C16.3337 24.6235 15.8342 24.8119 15.4389 25.1259V19.4686H16.2563C17.4942 19.4686 18.5013 18.4615 18.5013 17.2236V16.3301C18.5013 16.0072 18.2386 15.7444 17.9157 15.7444H16.8061C16.2919 15.7444 15.8178 15.9187 15.4389 16.2105V14.4319H15.6405C16.3661 14.4319 16.9565 13.8416 16.9565 13.116V12.1843C17.2593 12.0842 17.4786 11.799 17.4786 11.4631V10.008L17.8511 9.51182H25.8706ZM15.4389 17.9894C15.4389 17.2356 16.0522 16.6223 16.8061 16.6223H17.6235V17.2236C17.6235 17.9775 17.0102 18.5908 16.2563 18.5908H15.4389V17.9894ZM14.5611 18.5908H13.7437C12.9898 18.5908 12.3765 17.9775 12.3765 17.2236V16.6223H13.1939C13.9478 16.6223 14.5611 17.2356 14.5611 17.9894V18.5908ZM16.0787 12.2229V13.1159C16.0787 13.3575 15.8822 13.5541 15.6405 13.5541H14.3595C14.1179 13.5541 13.9213 13.3575 13.9213 13.1159V12.2229H16.0787ZM4.12939 9.51182H12.1489L12.5215 10.008V11.4631C12.5215 11.799 12.7407 12.0842 13.0435 12.1843V13.116C13.0435 13.8416 13.6338 14.4319 14.3595 14.4319H14.5611V16.2106C14.1822 15.9187 13.7082 15.7445 13.1939 15.7445H12.0844C11.7614 15.7445 11.4987 16.0072 11.4987 16.3302V17.2237C11.4987 18.4616 12.5058 19.4687 13.7437 19.4687H14.5611V25.126C14.1658 24.8119 13.6663 24.6236 13.1234 24.6236H4.12939V9.51182ZM4.12939 25.5014H13.1234C13.9161 25.5014 14.5611 26.1463 14.5611 26.9391V26.957H4.12939V25.5014ZM15.4389 26.9569V26.939C15.4389 26.1463 16.0839 25.5013 16.8767 25.5013H25.8706V26.9569H15.4389Z" fill="#00AC76"/>
<path d="M5.70588 15.3201H10.2406C10.483 15.3201 10.6795 15.1236 10.6795 14.8812C10.6795 14.6388 10.483 14.4423 10.2406 14.4423H5.70588C5.46348 14.4423 5.26697 14.6388 5.26697 14.8812C5.26697 15.1236 5.46348 15.3201 5.70588 15.3201Z" fill="#00AC76"/>
<path d="M5.70588 17.7858H10.2406C10.483 17.7858 10.6795 17.5893 10.6795 17.3469C10.6795 17.1045 10.483 16.908 10.2406 16.908H5.70588C5.46348 16.908 5.26697 17.1045 5.26697 17.3469C5.26697 17.5893 5.46348 17.7858 5.70588 17.7858Z" fill="#00AC76"/>
<path d="M5.70588 20.2517H11.346C11.5884 20.2517 11.7849 20.0551 11.7849 19.8127C11.7849 19.5704 11.5884 19.3738 11.346 19.3738H5.70588C5.46348 19.3738 5.26697 19.5704 5.26697 19.8127C5.26697 20.0551 5.46348 20.2517 5.70588 20.2517Z" fill="#00AC76"/>
<path d="M5.70588 22.7174H13.2166C13.459 22.7174 13.6555 22.5209 13.6555 22.2785C13.6555 22.0361 13.459 21.8396 13.2166 21.8396H5.70588C5.46348 21.8396 5.26697 22.0361 5.26697 22.2785C5.26697 22.5209 5.46348 22.7174 5.70588 22.7174Z" fill="#00AC76"/>
<path d="M19.7593 15.3201H24.2941C24.5365 15.3201 24.733 15.1236 24.733 14.8812C24.733 14.6388 24.5365 14.4423 24.2941 14.4423H19.7593C19.5169 14.4423 19.3204 14.6388 19.3204 14.8812C19.3204 15.1236 19.5169 15.3201 19.7593 15.3201Z" fill="#00AC76"/>
<path d="M19.7593 17.7858H24.2941C24.5365 17.7858 24.733 17.5893 24.733 17.3469C24.733 17.1045 24.5365 16.908 24.2941 16.908H19.7593C19.5169 16.908 19.3204 17.1045 19.3204 17.3469C19.3204 17.5893 19.5169 17.7858 19.7593 17.7858Z" fill="#00AC76"/>
<path d="M18.2151 19.8127C18.2151 20.0551 18.4116 20.2517 18.654 20.2517H24.2941C24.5365 20.2517 24.733 20.0551 24.733 19.8127C24.733 19.5704 24.5365 19.3738 24.2941 19.3738H18.654C18.4116 19.3738 18.2151 19.5704 18.2151 19.8127Z" fill="#00AC76"/>
<path d="M24.2942 21.8396H16.7835C16.5411 21.8396 16.3445 22.0361 16.3445 22.2785C16.3445 22.5209 16.5411 22.7174 16.7835 22.7174H24.2942C24.5366 22.7174 24.7331 22.5209 24.7331 22.2785C24.7331 22.0361 24.5366 21.8396 24.2942 21.8396Z" fill="#00AC76"/>
<path d="M22.7507 3.71195C22.827 3.71195 22.9044 3.69205 22.9748 3.65015L24.2885 2.86819C24.4969 2.74419 24.5652 2.47481 24.4412 2.26653C24.3173 2.05826 24.0479 1.98979 23.8395 2.11385L22.5258 2.89581C22.3175 3.01982 22.2491 3.28919 22.3731 3.49747C22.4552 3.63541 22.601 3.71195 22.7507 3.71195Z" fill="#00AC76"/>
<path d="M22.5258 5.92061L23.8395 6.70257C23.9099 6.74447 23.9872 6.76437 24.0636 6.76437C24.2132 6.76437 24.3591 6.68782 24.4412 6.54989C24.5652 6.34161 24.4968 6.07224 24.2885 5.94823L22.9747 5.16627C22.7664 5.04226 22.497 5.11061 22.3731 5.31895C22.2491 5.52723 22.3175 5.7966 22.5258 5.92061Z" fill="#00AC76"/>
<path d="M5.71155 2.86821L7.02529 3.65017C7.0957 3.69207 7.173 3.71197 7.24937 3.71197C7.39901 3.71197 7.54485 3.63542 7.62695 3.49749C7.75096 3.28921 7.68261 3.01984 7.47427 2.89583L6.16053 2.11393C5.95213 1.98986 5.68282 2.05827 5.55887 2.26661C5.43492 2.47489 5.50327 2.74426 5.71155 2.86821Z" fill="#00AC76"/>
<path d="M5.93655 6.76438C6.01286 6.76438 6.09023 6.74448 6.16063 6.70258L7.47437 5.92062C7.68271 5.79661 7.75106 5.52724 7.62705 5.31896C7.5031 5.11069 7.23373 5.04222 7.0254 5.16628L5.71165 5.94824C5.50332 6.07225 5.43496 6.34162 5.55897 6.5499C5.64102 6.68783 5.78685 6.76438 5.93655 6.76438Z" fill="#00AC76"/>
</g>
<defs>
<clipPath id="clip0_54_1653">
<rect width="30" height="30" fill="white"/>
</clipPath>
</defs>
</svg>
