<svg width="24" height="24" viewBox="0 0 24 24" fill="none" xmlns="http://www.w3.org/2000/svg">
<path d="M14.6128 5.95274V10.0605L16.0498 10.9642C16.1017 10.9756 16.1554 10.9756 16.2073 10.9642L22.3858 6.79874C22.3813 6.59658 22.3073 6.40213 22.1763 6.24807C22.0454 6.09401 21.8653 5.98973 21.6665 5.95274H14.6128Z" fill="#0072C6"/>
<path d="M14.6132 11.5927L15.9234 12.4927C15.9848 12.5301 16.0552 12.5499 16.127 12.5499C16.1989 12.5499 16.2693 12.5301 16.3307 12.4927C16.1057 12.6285 22.3854 8.45924 22.3854 8.45924V16.0087C22.4018 16.1617 22.3845 16.3164 22.3349 16.462C22.2852 16.6077 22.2043 16.7407 22.0979 16.8518C21.9914 16.9628 21.862 17.0493 21.7186 17.1052C21.5753 17.161 21.4214 17.1848 21.2679 17.175H14.6124L14.6132 11.5927ZM7.83016 9.69899C7.61246 9.69795 7.39853 9.75581 7.21103 9.86646C7.02354 9.9771 6.86948 10.1364 6.76516 10.3275C6.48025 10.834 6.34354 11.4105 6.37066 11.991C6.34105 12.5703 6.47795 13.146 6.76516 13.65C6.86904 13.8332 7.01931 13.9859 7.20088 14.0926C7.38245 14.1994 7.58891 14.2564 7.79952 14.2581C8.01013 14.2598 8.21748 14.206 8.40072 14.1021C8.58396 13.9983 8.73663 13.848 8.84341 13.6665C9.12749 13.1648 9.26156 12.5921 9.22966 12.0165C9.26219 11.4228 9.13256 10.8314 8.85466 10.3057C8.75535 10.1209 8.60743 9.96667 8.42688 9.85974C8.24632 9.75281 8.03999 9.69723 7.83016 9.69899Z" fill="#0072C6"/>
<path d="M1.61475 3.86625V19.9365L13.8397 22.5V1.5L1.61475 3.86625ZM9.79575 14.6182C9.56706 14.9406 9.26298 15.2022 8.91002 15.3801C8.55706 15.558 8.16593 15.6469 7.77075 15.639C7.38551 15.6458 7.00431 15.5595 6.65958 15.3874C6.31486 15.2153 6.01679 14.9625 5.79075 14.6505C5.25464 13.902 4.98645 12.9947 5.0295 12.075C4.98389 11.1102 5.25692 10.1572 5.8065 9.363C6.03807 9.03445 6.34692 8.76791 6.70582 8.5869C7.06472 8.40588 7.46264 8.31594 7.8645 8.325C8.24695 8.31733 8.62543 8.40365 8.96673 8.57639C9.30803 8.74913 9.60172 9.00302 9.822 9.31575C10.3527 10.0805 10.6164 10.9989 10.572 11.9288C10.6188 12.8865 10.3457 13.8327 9.79575 14.6182Z" fill="#0072C6"/>
</svg>
