<svg width="30" height="30" viewBox="0 0 30 30" fill="none" xmlns="http://www.w3.org/2000/svg">
<g clip-path="url(#clip0_54_1637)">
<path d="M27.6 10.9522H25.8121V10.7514C25.8121 10.2516 25.4054 9.84503 24.9056 9.84503H21.3793C21.1363 9.84503 20.9393 10.042 20.9393 10.2851C20.9393 10.5282 21.1363 10.7252 21.3793 10.7252H24.9056C24.9201 10.7252 24.9319 10.7369 24.9319 10.7514V16.1172C24.9319 16.3603 25.129 16.5573 25.372 16.5573C25.615 16.5573 25.8121 16.3603 25.8121 16.1172V11.8324H27.6C27.6595 11.8324 27.7079 11.8808 27.7079 11.9403V27.2935C27.7079 28.3005 26.8886 29.1198 25.8815 29.1198H4.1185C3.11144 29.1198 2.29214 28.3005 2.29214 27.2935V11.9403C2.29214 11.8808 2.34054 11.8324 2.40004 11.8324H4.24665V26.8837C4.24665 27.5042 4.75151 28.0091 5.37213 28.0091H24.6865C25.3072 28.0091 25.812 27.5043 25.812 26.8837V17.9942C25.812 17.7511 25.615 17.5541 25.3719 17.5541C25.1289 17.5541 24.9319 17.7511 24.9319 17.9942V24.3272H17.8118C16.8896 24.3272 16.0574 24.7172 15.4694 25.3401V19.6476C15.4694 19.4045 15.2724 19.2075 15.0294 19.2075C14.7863 19.2075 14.5893 19.4045 14.5893 19.6476V25.3402C14.0013 24.7173 13.169 24.3273 12.2469 24.3273H10.2472C10.0042 24.3273 9.80714 24.5243 9.80714 24.7674C9.80714 25.0105 10.0042 25.2074 10.2472 25.2074H12.2469C13.3948 25.2074 14.3518 26.0377 14.5507 27.129H5.37213C5.23682 27.129 5.1268 27.019 5.1268 26.8837V25.2074H8.37015C8.61319 25.2074 8.81023 25.0105 8.81023 24.7674C8.81023 24.5243 8.61319 24.3273 8.37015 24.3273H5.1268V10.7514C5.1268 10.7369 5.1386 10.7252 5.15309 10.7252H8.67938C8.92242 10.7252 9.11945 10.5282 9.11945 10.2851C9.11945 10.042 8.92242 9.84503 8.67938 9.84503H5.15309C4.65328 9.84503 4.24665 10.2517 4.24665 10.7514V10.9522H2.40004C1.85523 10.9522 1.41199 11.3954 1.41199 11.9403V27.2935C1.41199 28.7858 2.62612 30 4.1185 30H25.8814C27.3738 30 28.5879 28.7858 28.5879 27.2935V11.9403C28.588 11.3954 28.1448 10.9522 27.6 10.9522ZM17.8118 25.2074H24.9319V26.8837C24.9319 27.019 24.8218 27.129 24.6865 27.129H15.508C15.7069 26.0376 16.6639 25.2074 17.8118 25.2074Z" fill="#00AC76"/>
<path d="M9.16194 6.1746C9.40351 6.19701 9.61856 6.01975 9.64139 5.77777C9.76725 4.44323 10.3835 3.20761 11.3767 2.2986C12.3762 1.38395 13.6733 0.880149 15.0294 0.880149C18.0138 0.880149 20.4419 3.30819 20.4419 6.2926C20.4419 7.41561 20.101 8.49256 19.4562 9.40721C19.4526 9.41237 19.4491 9.41765 19.4456 9.42293L16.6295 13.8071C16.5839 13.8781 16.5596 13.9606 16.5596 14.045V14.6151C16.5596 14.7308 16.4655 14.8249 16.3498 14.8249H16.3211L16.6014 10.0677H17.1028C17.8201 10.0677 18.4037 9.48413 18.4037 8.76681V8.71342C18.4037 7.99609 17.8201 7.4125 17.1028 7.4125C16.415 7.4125 15.8446 7.95033 15.8041 8.6369L15.7716 9.18758H14.2284L14.1959 8.6369C14.1555 7.95033 13.585 7.4125 12.8972 7.4125C12.1799 7.4125 11.5963 7.99609 11.5963 8.71342V8.76681C11.5963 9.48413 12.1799 10.0677 12.8972 10.0677H13.3986L13.6787 14.8219C13.5774 14.8071 13.4991 14.7205 13.4991 14.6151V14.045C13.4991 13.9606 13.4748 13.8781 13.4293 13.8071L10.6131 9.42293C10.6097 9.41765 10.6062 9.41237 10.6026 9.40721C10.1976 8.83276 9.91247 8.19442 9.75516 7.50984C9.70065 7.27296 9.46418 7.12516 9.22766 7.17955C8.99078 7.23406 8.84291 7.47018 8.89737 7.70705C9.07973 8.5003 9.40955 9.24022 9.87768 9.90637L12.619 14.174V14.615C12.619 15.0593 12.8867 15.4419 13.2689 15.6114V16.3556C13.2689 17.1387 13.906 17.7757 14.6891 17.7757H15.37C16.153 17.7757 16.7901 17.1387 16.7901 16.3556V15.6114C17.1724 15.4419 17.44 15.0594 17.44 14.615V14.174L20.1813 9.90637C20.9277 8.84426 21.3222 7.59481 21.3222 6.29254C21.322 2.82281 18.4991 0 15.0294 0C13.4528 0 11.9446 0.585768 10.7825 1.64934C9.62795 2.70611 8.91151 4.14286 8.76517 5.69515C8.74228 5.93719 8.91996 6.15183 9.16194 6.1746ZM16.6827 8.68865C16.6958 8.46656 16.8803 8.29259 17.1028 8.29259C17.3348 8.29259 17.5236 8.48135 17.5236 8.71336V8.76675C17.5236 8.99876 17.3348 9.18752 17.1028 9.18752H16.6533L16.6827 8.68865ZM12.8972 9.18752C12.6652 9.18752 12.4764 8.99876 12.4764 8.76675V8.71336C12.4764 8.48135 12.6652 8.29259 12.8972 8.29259C13.1197 8.29259 13.3042 8.46656 13.3173 8.68865L13.3467 9.18752H12.8972ZM15.7198 10.0677L15.4395 14.8249H14.5606L14.2803 10.0677H15.7198ZM15.9097 16.3556C15.9097 16.6534 15.6675 16.8956 15.3697 16.8956H14.6889C14.3911 16.8956 14.1489 16.6534 14.1489 16.3556V15.705H15.9097V16.3556H15.9097Z" fill="#00AC76"/>
<path d="M22.738 3.34171C22.8411 3.34171 22.9446 3.30568 23.0281 3.23234L23.9883 2.38927C24.171 2.22897 24.189 1.95084 24.0287 1.76824C23.8684 1.58564 23.5903 1.56756 23.4076 1.72787L22.4475 2.57093C22.2648 2.73124 22.2468 3.00936 22.4071 3.19197C22.4941 3.29107 22.6157 3.34171 22.738 3.34171Z" fill="#00AC76"/>
<path d="M22.4474 5.99578L23.4076 6.83891C23.4912 6.91231 23.5947 6.94828 23.6978 6.94828C23.8201 6.94828 23.9417 6.89764 24.0287 6.79854C24.1891 6.61594 24.171 6.33787 23.9884 6.1775L23.0282 5.33438C22.8456 5.17396 22.5675 5.19209 22.4072 5.37475C22.2468 5.55735 22.2648 5.83536 22.4474 5.99578Z" fill="#00AC76"/>
<path d="M6.07041 2.38928L7.03059 3.23234C7.11414 3.30575 7.21765 3.34172 7.32075 3.34172C7.44297 3.34172 7.56461 3.29108 7.65162 3.19197C7.81199 3.00937 7.79391 2.73124 7.61125 2.57094L6.65107 1.72787C6.46847 1.56745 6.19034 1.58558 6.03004 1.76824C5.86967 1.95085 5.88775 2.22891 6.07041 2.38928Z" fill="#00AC76"/>
<path d="M6.36086 6.94834C6.46395 6.94834 6.56746 6.91231 6.65107 6.83896L7.61126 5.99584C7.79386 5.83547 7.81193 5.55741 7.65157 5.3748C7.49126 5.1922 7.2132 5.17413 7.03054 5.33444L6.07035 6.17756C5.88775 6.33792 5.86968 6.61599 6.03004 6.79859C6.117 6.8977 6.23858 6.94834 6.36086 6.94834Z" fill="#00AC76"/>
<path d="M11.1358 15.2649C11.1358 15.0218 10.9387 14.8248 10.6957 14.8248H6.36073C6.11769 14.8248 5.92065 15.0218 5.92065 15.2649C5.92065 15.508 6.11769 15.705 6.36073 15.705H10.6957C10.9387 15.705 11.1358 15.508 11.1358 15.2649Z" fill="#00AC76"/>
<path d="M12.0363 17.0635H7.15565C6.91261 17.0635 6.71558 17.2605 6.71558 17.5036C6.71558 17.7466 6.91261 17.9436 7.15565 17.9436H12.0363C12.2794 17.9436 12.4764 17.7466 12.4764 17.5036C12.4764 17.2605 12.2794 17.0635 12.0363 17.0635Z" fill="#00AC76"/>
<path d="M12.0363 19.2075H7.15565C6.91261 19.2075 6.71558 19.4045 6.71558 19.6476C6.71558 19.8907 6.91261 20.0877 7.15565 20.0877H12.0363C12.2794 20.0877 12.4764 19.8907 12.4764 19.6476C12.4764 19.4045 12.2794 19.2075 12.0363 19.2075Z" fill="#00AC76"/>
<path d="M12.0363 21.3517H7.15565C6.91261 21.3517 6.71558 21.5487 6.71558 21.7918C6.71558 22.0349 6.91261 22.2318 7.15565 22.2318H12.0363C12.2794 22.2318 12.4764 22.0349 12.4764 21.7918C12.4764 21.5487 12.2794 21.3517 12.0363 21.3517Z" fill="#00AC76"/>
<path d="M24.1381 15.2649C24.1381 15.0218 23.9411 14.8248 23.698 14.8248H19.363C19.12 14.8248 18.923 15.0218 18.923 15.2649C18.923 15.508 19.12 15.705 19.363 15.705H23.698C23.9411 15.705 24.1381 15.508 24.1381 15.2649Z" fill="#00AC76"/>
<path d="M22.903 17.0635H18.0223C17.7793 17.0635 17.5823 17.2605 17.5823 17.5036C17.5823 17.7466 17.7793 17.9436 18.0223 17.9436H22.903C23.146 17.9436 23.3431 17.7466 23.3431 17.5036C23.3431 17.2605 23.146 17.0635 22.903 17.0635Z" fill="#00AC76"/>
<path d="M22.903 19.2075H18.0223C17.7793 19.2075 17.5823 19.4045 17.5823 19.6476C17.5823 19.8907 17.7793 20.0877 18.0223 20.0877H22.903C23.146 20.0877 23.3431 19.8907 23.3431 19.6476C23.3431 19.4045 23.146 19.2075 22.903 19.2075Z" fill="#00AC76"/>
<path d="M22.903 21.3517H18.0223C17.7793 21.3517 17.5823 21.5487 17.5823 21.7918C17.5823 22.0349 17.7793 22.2318 18.0223 22.2318H22.903C23.146 22.2318 23.3431 22.0349 23.3431 21.7918C23.3431 21.5487 23.146 21.3517 22.903 21.3517Z" fill="#00AC76"/>
</g>
<defs>
<clipPath id="clip0_54_1637">
<rect width="30" height="30" fill="white"/>
</clipPath>
</defs>
</svg>
