<svg width="50" height="50" viewBox="0 0 50 50" fill="none" xmlns="http://www.w3.org/2000/svg">
<path d="M25 3.125C25.7561 3.125 26.5117 3.16361 27.2638 3.24068L27.4237 1.68638C25.269 1.4653 23.0942 1.54039 20.96 1.90954L21.2276 3.44896C22.4735 3.2332 23.7356 3.12482 25 3.125Z" fill="white"/>
<path d="M12.1772 7.27539L11.2603 6.01025C8.25558 8.18149 5.80954 11.0353 4.12352 14.3368C2.43751 17.6383 1.55975 21.293 1.5625 25.0001C1.55228 28.606 2.38257 32.1646 3.9875 35.3936L5.3875 34.6999C3.88994 31.6863 3.11529 28.3652 3.125 25.0001C3.12222 21.5399 3.94146 18.1285 5.51526 15.0469C7.08907 11.9654 9.37241 9.30171 12.1772 7.27539Z" fill="white"/>
<path d="M25.7548 46.8622L25.8077 48.4238C28.0057 48.3506 30.1824 47.9678 32.2735 47.2867L31.789 45.8013C29.8374 46.4368 27.8061 46.7939 25.7548 46.8622Z" fill="white"/>
<path d="M10.9375 24.2188H12.5V42.1875H10.9375V24.2188Z" fill="white"/>
<path d="M15.625 24.2188H17.1875V42.1875H15.625V24.2188Z" fill="white"/>
<path d="M20.3125 24.2188H21.875V42.1875H20.3125V24.2188Z" fill="white"/>
<path d="M47.9949 25.754L33.9141 18.9808C33.3538 18.7121 32.7099 18.6766 32.1234 18.8821C31.537 19.0877 31.0561 19.5174 30.7861 20.077L26.5625 28.8577V21.0938C26.5613 20.0581 26.1494 19.0652 25.4171 18.3329C24.6848 17.6006 23.6919 17.1887 22.6562 17.1875H19.5312V4.6875C19.5312 3.8587 19.202 3.06384 18.616 2.47779C18.0299 1.89174 17.2351 1.5625 16.4062 1.5625C15.5774 1.5625 14.7826 1.89174 14.1965 2.47779C13.6105 3.06384 13.2812 3.8587 13.2812 4.6875V17.1875H10.1562C9.12061 17.1887 8.12772 17.6006 7.39541 18.3329C6.6631 19.0652 6.25118 20.0581 6.25 21.0938V41.4063C6.25095 42.2086 6.49851 42.9912 6.95914 43.6481C7.41977 44.305 8.07119 44.8044 8.82516 45.0787C8.65792 45.4263 8.57907 45.8099 8.59561 46.1953C8.61215 46.5807 8.72357 46.9561 8.91998 47.2881C9.1164 47.6202 9.39173 47.8986 9.72155 48.0987C10.0514 48.2988 10.4255 48.4144 10.8107 48.4353C11.1959 48.4561 11.5803 48.3815 11.9298 48.2182C12.2793 48.0548 12.5831 47.8078 12.8142 47.4988C13.0453 47.1899 13.1965 46.8288 13.2546 46.4474C13.3126 46.066 13.2756 45.6762 13.1469 45.3125H19.6656C19.537 45.6761 19.5001 46.0658 19.5582 46.4471C19.6163 46.8284 19.7676 47.1895 19.9987 47.4983C20.2298 47.8071 20.5335 48.0541 20.8829 48.2173C21.2323 48.3806 21.6166 48.4552 22.0017 48.4343C22.3869 48.4135 22.7609 48.2979 23.0906 48.0979C23.4204 47.8979 23.6957 47.6195 23.8921 47.2876C24.0885 46.9557 24.2 46.5804 24.2166 46.1951C24.2332 45.8097 24.1544 45.4263 23.9873 45.0787C24.6015 44.8545 25.1498 44.4804 25.5825 43.9902C26.0151 43.5001 26.3183 42.9096 26.4645 42.2724L37.4968 47.579C37.5892 47.6236 37.6895 47.6495 37.792 47.6552C37.8944 47.661 37.997 47.6465 38.0939 47.6125C38.1907 47.5786 38.2799 47.5259 38.3564 47.4575C38.4328 47.389 38.495 47.3062 38.5395 47.2137L48.3603 26.7966C48.4501 26.6099 48.4621 26.3952 48.3935 26.1996C48.325 26.0041 48.1816 25.8438 47.9949 25.754ZM32.8995 20.3118C33.0163 20.3118 33.1317 20.3382 33.2369 20.3889L46.6135 26.8233L45.9362 28.2314L32.5595 21.7971C32.3731 21.7071 32.23 21.547 32.1614 21.3517C32.0929 21.1564 32.1045 20.9419 32.1938 20.7551L32.1942 20.7543C32.2582 20.6217 32.3583 20.5097 32.4831 20.4314C32.6079 20.3532 32.7522 20.3117 32.8995 20.3118ZM14.8438 4.6875C14.8438 4.2731 15.0084 3.87567 15.3014 3.58265C15.5944 3.28962 15.9918 3.125 16.4062 3.125C16.8207 3.125 17.2181 3.28962 17.5111 3.58265C17.8041 3.87567 17.9688 4.2731 17.9688 4.6875V17.1875H14.8438V4.6875ZM11.7188 46.0938C11.7188 46.2483 11.6729 46.3993 11.5871 46.5278C11.5012 46.6563 11.3792 46.7564 11.2365 46.8155C11.0937 46.8747 10.9366 46.8901 10.7851 46.86C10.6335 46.8298 10.4943 46.7554 10.3851 46.6462C10.2758 46.5369 10.2014 46.3977 10.1713 46.2462C10.1411 46.0946 10.1566 45.9375 10.2157 45.7948C10.2748 45.652 10.375 45.53 10.5035 45.4442C10.6319 45.3583 10.783 45.3125 10.9375 45.3125C11.1446 45.3127 11.3432 45.3951 11.4897 45.5416C11.6361 45.688 11.7185 45.8866 11.7188 46.0938ZM21.875 46.875C21.7205 46.875 21.5694 46.8292 21.441 46.7433C21.3125 46.6575 21.2123 46.5355 21.1532 46.3927C21.0941 46.25 21.0786 46.0929 21.1088 45.9413C21.1389 45.7898 21.2133 45.6506 21.3226 45.5413C21.4318 45.4321 21.571 45.3577 21.7226 45.3275C21.8741 45.2974 22.0312 45.3128 22.174 45.372C22.3167 45.4311 22.4387 45.5312 22.5246 45.6597C22.6104 45.7882 22.6562 45.9392 22.6562 46.0938C22.656 46.3009 22.5736 46.4995 22.4272 46.6459C22.2807 46.7924 22.0821 46.8748 21.875 46.875ZM22.6562 43.75H10.1562C9.53487 43.7493 8.93914 43.5021 8.49975 43.0627C8.06037 42.6234 7.81321 42.0276 7.8125 41.4063V21.0938C7.81321 20.4724 8.06037 19.8766 8.49975 19.4373C8.93914 18.9979 9.53487 18.7507 10.1562 18.75H13.2812V22.6563H14.8438V18.75H17.9688V22.6563H19.5312V18.75H22.6562C23.2776 18.7507 23.8734 18.9979 24.3127 19.4373C24.7521 19.8766 24.9993 20.4724 25 21.0938V32.106L22.3198 37.678C22.1864 37.9553 22.1089 38.2563 22.0918 38.5636C22.0747 38.8709 22.1183 39.1785 22.2201 39.469C22.3219 39.7595 22.4799 40.0271 22.6851 40.2565C22.8903 40.4859 23.1386 40.6726 23.416 40.806L24.994 41.565C24.9532 42.1575 24.6892 42.7124 24.2554 43.1178C23.8215 43.5233 23.2501 43.7492 22.6562 43.75ZM37.47 45.8324L24.0933 39.398C23.9066 39.3082 23.7632 39.1478 23.6947 38.9523C23.6262 38.7567 23.6381 38.542 23.7279 38.3553L31.2365 22.7453C31.4239 22.9343 31.6424 23.0898 31.8823 23.2051L45.259 29.6394L37.47 45.8324Z" fill="white"/>
<path d="M37.5413 27.661C36.5666 27.1922 35.4748 27.023 34.404 27.1747C33.3331 27.3264 32.3313 27.7922 31.5252 28.5133C30.7191 29.2344 30.1449 30.1783 29.8752 31.2257C29.6056 32.2731 29.6526 33.3769 30.0102 34.3976C30.3679 35.4183 31.0202 36.31 31.8847 36.96C32.7491 37.61 33.7869 37.989 34.8668 38.0492C35.9467 38.1094 37.0201 37.848 37.9515 37.2981C38.8828 36.7482 39.6301 35.9345 40.099 34.9598C40.726 33.6525 40.8089 32.1498 40.3294 30.7815C39.8499 29.4132 38.8472 28.2909 37.5413 27.661ZM38.9587 33.5444L37.558 32.8707C37.871 32.0072 38.0247 31.0941 38.0117 30.1757L38.0075 29.905C38.4585 30.3832 38.782 30.9672 38.9482 31.6032C39.1144 32.2391 39.118 32.9067 38.9587 33.5444ZM34.1019 35.0798L33.8961 35.2392L33.8921 34.9789C33.8828 34.3032 33.9873 33.6308 34.201 32.9897L35.4632 33.5968C35.0957 34.164 34.6356 34.6653 34.1019 35.0798ZM34.8783 31.5817C35.2457 31.0145 35.7059 30.5132 36.2396 30.0987L36.4454 29.9393L36.4494 30.1996C36.4586 30.8753 36.3542 31.5477 36.1404 32.1888L34.8783 31.5817ZM35.1769 28.6832C35.2832 28.6832 35.3898 28.689 35.4964 28.6979L35.283 28.8631C34.5574 29.4262 33.94 30.1163 33.4607 30.8998L32.0616 30.2268C32.4271 29.7472 32.8984 29.3584 33.4387 29.0907C33.9791 28.8229 34.5739 28.6835 35.1769 28.6832ZM31.3822 31.6338L32.7834 32.3078C32.4705 33.1713 32.3168 34.0844 32.3298 35.0027L32.334 35.2761C31.882 34.7979 31.5578 34.2135 31.3915 33.5769C31.2251 32.9403 31.2219 32.272 31.3822 31.6338ZM34.8444 36.4811L35.0584 36.3154C35.7841 35.7523 36.4015 35.0622 36.8808 34.2787L38.2814 34.9525C37.8826 35.475 37.3589 35.8888 36.7583 36.156C36.1577 36.4231 35.4995 36.5349 34.8444 36.4811Z" fill="white"/>
<path d="M27.5661 39.3318L28.2426 37.9241L35.2817 41.3069L34.6051 42.7146L27.5661 39.3318Z" fill="white"/>
<path d="M35.318 12.3383C34.8603 11.8817 34.2402 11.6253 33.5938 11.6253C32.9473 11.6253 32.3272 11.8817 31.8695 12.3383C31.705 12.5023 31.4823 12.5944 31.25 12.5944C31.0177 12.5944 30.795 12.5023 30.6305 12.3383L30.4352 12.143C29.4073 11.1174 28.0145 10.5415 26.5625 10.5415C25.1105 10.5415 23.7177 11.1174 22.6898 12.143C22.4807 12.3532 22.2319 12.5199 21.958 12.6334C21.684 12.7468 21.3903 12.8049 21.0938 12.804V14.3665C21.5955 14.3679 22.0926 14.2698 22.5562 14.0777C23.0198 13.8857 23.4407 13.6037 23.7946 13.2479C24.5293 12.5149 25.5247 12.1032 26.5625 12.1032C27.6003 12.1032 28.5957 12.5149 29.3304 13.2479L29.5257 13.4432C29.9834 13.8998 30.6035 14.1562 31.25 14.1562C31.8965 14.1562 32.5166 13.8998 32.9743 13.4432C33.1387 13.2791 33.3615 13.1869 33.5938 13.1869C33.826 13.1869 34.0488 13.2791 34.2132 13.4432L35.6532 14.8832C38.4535 17.699 42.2139 19.3536 46.1818 19.5157C46.5178 20.8181 46.7327 22.1488 46.8238 23.4907L48.3827 23.3845C48.176 20.2883 47.3509 17.265 45.9559 14.4932L44.5597 15.1945C45.0024 16.0764 45.3847 16.9873 45.704 17.9211C42.3229 17.6528 39.1495 16.1833 36.758 13.7782L35.318 12.3383Z" fill="white"/>
<path d="M28.4989 5.35411L41.5116 13.3063C41.96 13.5818 42.4883 13.6978 43.0109 13.6357C43.5335 13.5735 44.0198 13.3368 44.3911 12.9638L47.4274 9.92746C47.5739 9.78094 47.6562 9.58221 47.6562 9.375C47.6562 9.16778 47.5739 8.96906 47.4274 8.82253L45.8649 7.26003C45.7372 7.13236 45.5692 7.05287 45.3895 7.03508C45.2097 7.0173 45.0294 7.06231 44.8791 7.16247L42.9687 8.43601L39.4018 6.05802L41.25 3.59373C41.3628 3.44328 41.4176 3.25718 41.4043 3.06959C41.3909 2.882 41.3104 2.70551 41.1774 2.57253L40.3962 1.79128C40.2802 1.67535 40.1307 1.59884 39.9689 1.57258C39.807 1.54633 39.641 1.57166 39.4944 1.645L35.1904 3.79695L33.7441 2.92911C32.9974 2.47995 32.1218 2.29375 31.2569 2.40023C30.3921 2.5067 29.5878 2.89971 28.9723 3.51657L28.3538 4.13503C28.2703 4.21861 28.2067 4.32005 28.168 4.43173C28.1294 4.54341 28.1165 4.66241 28.1305 4.77978C28.1444 4.89714 28.1848 5.00981 28.2487 5.10929C28.3125 5.20877 28.398 5.29248 28.4989 5.35411ZM32.9402 4.26902L34.7543 5.35745C34.867 5.42505 34.9949 5.46313 35.1263 5.46816C35.2576 5.4732 35.3881 5.44502 35.5056 5.38625L39.4206 3.42874L37.6563 5.78126C37.5925 5.86626 37.5468 5.96336 37.5218 6.06663C37.4969 6.16991 37.4933 6.27718 37.5112 6.3819C37.5291 6.48662 37.5683 6.58658 37.6261 6.67566C37.684 6.76475 37.7595 6.84109 37.8479 6.90001L42.5354 10.025C42.6637 10.1105 42.8145 10.1562 42.9687 10.1562C43.123 10.1562 43.2738 10.1105 43.4021 10.025L45.2129 8.81776L45.7701 9.375L43.2862 11.8589C43.1624 11.9833 43.0003 12.0622 42.8261 12.0829C42.6519 12.1036 42.4759 12.0649 42.3264 11.9731L30.1629 4.53987C30.5354 4.20245 31.0066 3.99392 31.5068 3.94514C32.007 3.89636 32.5096 4.00992 32.9402 4.26902Z" fill="white"/>
</svg>
